<?xml version="1.0" encoding="utf-8"?>
<!-- Generator: Adobe Illustrator 22.1.0, SVG Export Plug-In . SVG Version: 6.00 Build 0)  -->
<svg version="1.1" xmlns="http://www.w3.org/2000/svg" xmlns:xlink="http://www.w3.org/1999/xlink" x="0px" y="0px"
	 viewBox="0 0 475.2 144" style="enable-background:new 0 0 475.2 144;" xml:space="preserve">
<style type="text/css">
	.st0{display:none;}
	.st1{display:inline;fill:#0D385E;}
	.st2{fill:#FFFFFF;}
	.st3{fill:#010101;}
	.st4{fill:#273A5E;}
	.st5{fill:#003A63;}
	.st6{fill:#0D385E;}
</style>
<g id="Layer_2" class="st0">
</g>
<g id="Template">
	<g>
		<g>
			<path class="st4" d="M5.5,75.4h3.8V51.1H5.5v-2.9h11.7c10.3,0,15.2,6.4,15.2,14.7v0.4c0,8.3-4.8,14.9-15.3,14.9H5.5V75.4z
				 M17.1,75.3c7.7,0,11.6-4.6,11.6-12V63c0-6.9-3.4-11.8-11.6-11.8h-4.1v24.1H17.1z"/>
			<path class="st4" d="M35.3,67.5v-0.3c0-6.6,4.2-11.3,10.3-11.3c5.1,0,9.9,3.1,9.9,10.9V68H38.9c0.2,5,2.6,7.8,7.1,7.8
				c3.4,0,5.4-1.3,5.8-3.8h3.5c-0.8,4.4-4.4,6.7-9.4,6.7C39.7,78.7,35.3,74.3,35.3,67.5z M51.9,65.2c-0.3-4.5-2.7-6.3-6.3-6.3
				c-3.6,0-6,2.4-6.6,6.3H51.9z"/>
			<path class="st4" d="M57.7,85.9v-2.7h3.1v-24h-3.2v-2.9h6.6v3.9c1.3-2.3,4.2-4.2,7.4-4.2c5.8,0,10,4.2,10,11v0.3
				c0,6.7-3.9,11.3-10,11.3c-3.6,0-6.2-1.8-7.4-4.1v8.6h3.4v2.7H57.7z M78.1,67.5v-0.3c0-5.5-3.1-8.3-6.8-8.3
				c-4.1,0-7.2,2.7-7.2,8.3v0.3c0,5.5,3,8.3,7.2,8.3C75.7,75.8,78.1,72.8,78.1,67.5z"/>
			<path class="st4" d="M91.4,78.7c-4,0-7.1-2-7.1-6.5c0-5.1,5.3-6.8,10.8-6.8h3.1v-1.6c0-3.7-1.5-5-4.6-5c-2.9,0-4.5,1.1-4.9,3.9
				h-3.5c0.4-5.2,4.4-6.8,8.5-6.8c4.1,0,7.9,1.5,7.9,7.9v11.8h2.9v2.7h-6.4v-3C96.7,77.5,94.6,78.7,91.4,78.7z M98.2,70.6v-2.7h-2.9
				c-4.3,0-7.5,1.1-7.5,4.3c0,2,1,3.7,4,3.7C95.4,75.9,98.2,74,98.2,70.6z"/>
			<path class="st4" d="M106.5,78.3v-2.7h3.1V59.2h-3.2v-2.9h6.6v4.2c1-2.3,3.3-4.5,7.9-4.6v3.4c-4.8,0-7.9,1.5-7.9,6.8v9.3h3.4v2.7
				H106.5z"/>
			<path class="st4" d="M126.2,72.8V59.3H123v-2.9h3.2v-5h3.5v5h5.7v2.9h-5.7v13.2c0,2.1,1,3.2,3.2,3.2c0.9,0,1.8-0.2,2.9-0.5v2.9
				c-1,0.3-1.9,0.5-3.2,0.5C128.1,78.6,126.2,76.2,126.2,72.8z"/>
			<path class="st4" d="M138.1,78.3v-2.7h3.1V59.2h-3.2v-2.9h6.6v3.6c0.9-2.1,3.3-4,6.4-4c2.8,0,5.3,1.2,6.4,4.5
				c1.5-3.1,4.5-4.5,7.3-4.5c3.9,0,7.3,2.4,7.3,8.7v10.9h3.1v2.7h-9.7v-2.7h3.2V64.4c0-3.9-1.5-5.5-4.5-5.5c-2.9,0-5.7,1.9-5.7,5.9
				v10.7h3.2v2.7h-9.8v-2.7h3.2V64.4c0-3.9-1.5-5.5-4.5-5.5c-2.9,0-5.7,1.9-5.7,5.9v10.7h3.2v2.7H138.1z"/>
			<path class="st4" d="M177,67.5v-0.3c0-6.6,4.2-11.3,10.3-11.3c5.1,0,9.9,3.1,9.9,10.9V68h-16.6c0.2,5,2.6,7.8,7.1,7.8
				c3.4,0,5.4-1.3,5.8-3.8h3.5c-0.8,4.4-4.4,6.7-9.4,6.7C181.4,78.7,177,74.3,177,67.5z M193.6,65.2c-0.3-4.5-2.7-6.3-6.3-6.3
				c-3.6,0-6,2.4-6.6,6.3H193.6z"/>
			<path class="st4" d="M199.7,78.3v-2.7h3.1V59.2h-3.2v-2.9h6.6V60c1-2.1,3.4-4.1,6.9-4.1c4.4,0,7.6,2.4,7.6,8.7v10.9h3.1v2.7h-9.7
				v-2.7h3.2V64.4c0-3.7-1.7-5.4-5.1-5.4c-3.1,0-6,2.1-6,5.9v10.7h3.2v2.7H199.7z"/>
			<path class="st4" d="M227.8,72.8V59.3h-3.2v-2.9h3.2v-5h3.5v5h5.7v2.9h-5.7v13.2c0,2.1,1,3.2,3.2,3.2c0.9,0,1.8-0.2,2.9-0.5v2.9
				c-1,0.3-1.9,0.5-3.2,0.5C229.7,78.6,227.8,76.2,227.8,72.8z"/>
			<path class="st4" d="M249,67.5v-0.3c0-6.6,4.6-11.2,10.8-11.2c6.2,0,10.8,4.6,10.8,11.2v0.3c0,6.6-4.6,11.2-10.8,11.2
				C253.5,78.7,249,73.9,249,67.5z M267,67.5v-0.3c0-5.1-2.8-8.4-7.2-8.4c-4.4,0-7.2,3.3-7.2,8.3v0.3c0,5,2.7,8.3,7.2,8.3
				C264.2,75.8,267,72.5,267,67.5z"/>
			<path class="st4" d="M273.1,78.3v-2.7h3.1V59.3H273v-2.9h3.2v-3.6c0-4.5,2.2-7.1,6.6-7.1c1.1,0,1.7,0.1,2.6,0.4v2.9
				c-0.6-0.3-1.5-0.5-2.5-0.5c-2.3,0-3.2,1.6-3.2,3.8v3.9h5.4v2.9h-5.4v16.3h3.9v2.7H273.1z"/>
			<path class="st4" d="M300.6,74.9v3.4h-3.1v-9.2h3.1c0.7,3.8,3.4,6.7,8,6.7c3.7,0,6.5-2.3,6.5-5.5c0-3.4-1.6-5.2-7-6.1
				c-6-1-10.2-3.2-10.2-8.4c0-4.8,3.7-7.9,9.2-7.9c4.2,0,6.1,1.5,7.1,3.3v-2.9h3.1v7.9h-3c-0.8-3.3-3.2-5.5-7.1-5.5
				c-3.7,0-5.9,1.8-5.9,4.7c0,2.8,1.6,4.5,7.4,5.5c6.4,1.1,9.9,3.3,9.9,9c0,5.1-4.2,8.7-10,8.7C304.8,78.7,301.9,77.3,300.6,74.9z"
				/>
			<path class="st4" d="M324.2,72.8V59.3h-3.2v-2.9h3.2v-5h3.5v5h5.7v2.9h-5.7v13.2c0,2.1,1,3.2,3.2,3.2c0.9,0,1.8-0.2,2.9-0.5v2.9
				c-1,0.3-1.9,0.5-3.2,0.5C326.2,78.6,324.2,76.2,324.2,72.8z"/>
			<path class="st4" d="M343.2,78.7c-4,0-7.1-2-7.1-6.5c0-5.1,5.3-6.8,10.8-6.8h3.1v-1.6c0-3.7-1.5-5-4.6-5c-2.9,0-4.5,1.1-4.9,3.9
				H337c0.4-5.2,4.4-6.8,8.5-6.8c4.1,0,7.9,1.5,7.9,7.9v11.8h2.9v2.7H350v-3C348.5,77.5,346.4,78.7,343.2,78.7z M350,70.6v-2.7H347
				c-4.3,0-7.5,1.1-7.5,4.3c0,2,1,3.7,4,3.7C347.2,75.9,350,74,350,70.6z"/>
			<path class="st4" d="M360.4,72.8V59.3h-3.2v-2.9h3.2v-5h3.5v5h5.7v2.9h-5.7v13.2c0,2.1,1,3.2,3.2,3.2c0.9,0,1.8-0.2,2.9-0.5v2.9
				c-1,0.3-1.9,0.5-3.2,0.5C362.3,78.6,360.4,76.2,360.4,72.8z"/>
			<path class="st4" d="M372.3,78.3v-2.7h3.1V59.2h-3.2v-2.9h6.6v19.2h3.2v2.7H372.3z M374.6,49.4c0-1.3,1.1-2.4,2.4-2.4
				c1.3,0,2.4,1,2.4,2.4c0,1.3-1.1,2.4-2.4,2.4C375.6,51.8,374.6,50.7,374.6,49.4z"/>
			<path class="st4" d="M387.2,75.6v2.7h-2.9V71h2.9c0.5,2.6,2.5,4.9,5.9,4.9c3,0,4.5-1.3,4.5-3.6c0-2.3-1.8-3.1-5.2-3.7
				c-5.7-1.1-7.6-3.1-7.6-6.7c0-3.7,3.2-5.9,6.9-5.9c3.2,0,4.7,1.1,5.5,2.7v-2.3h2.9v6.3h-2.9c-0.5-2.4-2.4-3.9-5.3-3.9
				c-2.5,0-4,1-4,3c0,1.9,1.1,2.9,5.1,3.7c4.5,0.9,7.8,2,7.8,6.6c0,3.9-2.7,6.6-7.9,6.6C389.5,78.7,387.8,77,387.2,75.6z"/>
			<path class="st4" d="M406.3,72.8V59.3h-3.2v-2.9h3.2v-5h3.5v5h5.7v2.9h-5.7v13.2c0,2.1,1,3.2,3.2,3.2c0.9,0,1.8-0.2,2.9-0.5v2.9
				c-1,0.3-1.9,0.5-3.2,0.5C408.2,78.6,406.3,76.2,406.3,72.8z"/>
			<path class="st4" d="M418.2,78.3v-2.7h3.1V59.2h-3.2v-2.9h6.6v19.2h3.2v2.7H418.2z M420.5,49.4c0-1.3,1.1-2.4,2.4-2.4
				c1.3,0,2.4,1,2.4,2.4c0,1.3-1.1,2.4-2.4,2.4C421.6,51.8,420.5,50.7,420.5,49.4z"/>
			<path class="st4" d="M447.1,56.3h3.1v7.4h-3c-0.8-2.9-2.8-4.9-6.5-4.9c-4,0-7.1,3.2-7.1,8.4v0.3c0,5.4,2.9,8.2,7.2,8.2
				c3.1,0,5.9-1.8,6.3-5.4h3.2c-0.5,4.7-4.3,8.3-9.6,8.3c-6.1,0-10.8-4.3-10.8-11.1v-0.3c0-6.7,4.8-11.3,10.7-11.3
				c3.7,0,5.5,1.5,6.4,3.2V56.3z"/>
			<path class="st4" d="M456.5,75.6v2.7h-2.9V71h2.9c0.5,2.6,2.5,4.9,5.9,4.9c3,0,4.5-1.3,4.5-3.6c0-2.3-1.8-3.1-5.2-3.7
				c-5.7-1.1-7.6-3.1-7.6-6.7c0-3.7,3.2-5.9,6.9-5.9c3.2,0,4.7,1.1,5.5,2.7v-2.3h2.9v6.3h-2.9c-0.5-2.4-2.4-3.9-5.3-3.9
				c-2.5,0-4,1-4,3c0,1.9,1.1,2.9,5.1,3.7c4.5,0.9,7.8,2,7.8,6.6c0,3.9-2.7,6.6-7.9,6.6C458.8,78.7,457,77,456.5,75.6z"/>
			<path class="st4" d="M12.8,128.7c-4,0-7.1-2-7.1-6.5c0-5.1,5.3-6.8,10.8-6.8h3.1v-1.6c0-3.7-1.5-5-4.6-5c-2.9,0-4.5,1.1-4.9,3.9
				H6.6c0.4-5.2,4.4-6.8,8.5-6.8c4.1,0,7.9,1.5,7.9,7.9v11.8H26v2.7h-6.4v-3C18.1,127.5,16,128.7,12.8,128.7z M19.6,120.6v-2.7h-2.9
				c-4.3,0-7.5,1.1-7.5,4.3c0,2,1,3.7,4,3.7C16.8,125.9,19.6,124,19.6,120.6z"/>
			<path class="st4" d="M27.8,128.3v-2.7h3.1v-16.4h-3.2v-2.9h6.6v3.7c1-2.1,3.4-4.1,6.9-4.1c4.4,0,7.6,2.4,7.6,8.7v10.9H52v2.7
				h-9.7v-2.7h3.2v-11.2c0-3.7-1.7-5.4-5.1-5.4c-3.1,0-6,2.1-6,5.9v10.7h3.2v2.7H27.8z"/>
			<path class="st4" d="M63.8,128.7c-5.8,0-9.9-4.1-9.9-10.9v-0.3c0-6.7,4.2-11.5,10.2-11.5c3.7,0,5.9,1.8,7.2,3.9V98.7H68v-2.9h6.8
				v29.7h3.1v2.7h-6.6v-3.8C70.1,126.7,67,128.7,63.8,128.7z M71.4,117.5v-0.3c0-5.8-2.7-8.4-7-8.4c-4.4,0-7,3.1-7,8.5v0.3
				c0,5.6,3,8.3,6.7,8.3C68.3,125.9,71.4,123.2,71.4,117.5z"/>
			<path class="st4" d="M88.3,128.3v-2.9h2.9l9.4-27.2h4.8l9.2,27.2h2.9v2.9h-9.8v-2.9h3.3l-2-5.8H96.6l-2,5.8h3.3v2.9H88.3z
				 M97.6,116.7H108l-5.2-15.5L97.6,116.7z"/>
			<path class="st4" d="M118.8,135.9v-2.7h3.1v-24h-3.2v-2.9h6.6v3.9c1.3-2.3,4.2-4.2,7.4-4.2c5.8,0,10,4.2,10,11v0.3
				c0,6.7-3.9,11.3-10,11.3c-3.6,0-6.2-1.8-7.4-4.1v8.6h3.4v2.7H118.8z M139.2,117.5v-0.3c0-5.5-3.1-8.3-6.8-8.3
				c-4.1,0-7.2,2.7-7.2,8.3v0.3c0,5.5,3,8.3,7.2,8.3C136.8,125.8,139.2,122.8,139.2,117.5z"/>
			<path class="st4" d="M144.9,135.9v-2.7h3.1v-24h-3.2v-2.9h6.6v3.9c1.3-2.3,4.2-4.2,7.4-4.2c5.8,0,10,4.2,10,11v0.3
				c0,6.7-3.9,11.3-10,11.3c-3.6,0-6.2-1.8-7.4-4.1v8.6h3.4v2.7H144.9z M165.3,117.5v-0.3c0-5.5-3.1-8.3-6.8-8.3
				c-4.1,0-7.2,2.7-7.2,8.3v0.3c0,5.5,3,8.3,7.2,8.3C162.9,125.8,165.3,122.8,165.3,117.5z"/>
			<path class="st4" d="M171.2,128.3v-2.7h3.1V98.7h-3.2v-2.9h6.7v29.7h3.1v2.7H171.2z"/>
			<path class="st4" d="M182.7,128.3v-2.7h3.1v-16.4h-3.2v-2.9h6.6v19.2h3.2v2.7H182.7z M184.9,99.4c0-1.3,1.1-2.4,2.4-2.4
				s2.4,1,2.4,2.4c0,1.3-1.1,2.4-2.4,2.4S184.9,100.7,184.9,99.4z"/>
			<path class="st4" d="M194.5,117.5v-0.3c0-6.6,4.2-11.3,10.3-11.3c5.1,0,9.9,3.1,9.9,10.9v1.1h-16.6c0.2,5,2.6,7.8,7.1,7.8
				c3.4,0,5.4-1.3,5.8-3.8h3.5c-0.8,4.4-4.4,6.7-9.4,6.7C198.9,128.7,194.5,124.3,194.5,117.5z M211.1,115.2
				c-0.3-4.5-2.7-6.3-6.3-6.3c-3.6,0-6,2.4-6.6,6.3H211.1z"/>
			<path class="st4" d="M227.3,128.7c-5.8,0-9.9-4.1-9.9-10.9v-0.3c0-6.7,4.2-11.5,10.2-11.5c3.7,0,5.9,1.8,7.2,3.9V98.7h-3.3v-2.9
				h6.8v29.7h3.1v2.7h-6.6v-3.8C233.6,126.7,230.5,128.7,227.3,128.7z M234.9,117.5v-0.3c0-5.8-2.7-8.4-7-8.4c-4.4,0-7,3.1-7,8.5
				v0.3c0,5.6,3,8.3,6.7,8.3C231.8,125.9,234.9,123.2,234.9,117.5z"/>
			<path class="st4" d="M252.4,128.3v-2.9h3.8v-24.3h-3.8v-2.9h12.3c5.8,0,10.5,2.5,10.5,8.8v0.2c0,6.3-4.8,8.8-10.5,8.8h-4.9v9.4
				h4.1v2.9H252.4z M265,113.2c4.3,0,6.6-2.1,6.6-6V107c0-4.3-2.5-5.9-6.6-5.9h-5.1v12.1H265z"/>
			<path class="st4" d="M277.5,128.3v-2.7h3.1v-16.4h-3.2v-2.9h6.6v4.2c1-2.3,3.3-4.5,7.9-4.6v3.4c-4.8,0-7.9,1.5-7.9,6.8v9.3h3.4
				v2.7H277.5z"/>
			<path class="st4" d="M293.7,117.5v-0.3c0-6.6,4.6-11.2,10.8-11.2s10.8,4.6,10.8,11.2v0.3c0,6.6-4.6,11.2-10.8,11.2
				S293.7,123.9,293.7,117.5z M311.6,117.5v-0.3c0-5.1-2.8-8.4-7.2-8.4c-4.4,0-7.2,3.3-7.2,8.3v0.3c0,5,2.7,8.3,7.2,8.3
				C308.9,125.8,311.6,122.5,311.6,117.5z"/>
			<path class="st4" d="M324,124.6v3.7h-6.6v-2.7h3.1V98.7h-3.2v-2.9h6.6v14.4c1.3-2.4,4.2-4.2,7.4-4.2c5.8,0,10,4.2,10,11v0.3
				c0,6.7-3.9,11.3-10,11.3C327.9,128.7,325.3,126.9,324,124.6z M337.8,117.5v-0.3c0-5.5-3.1-8.3-6.8-8.3c-4.1,0-7.2,2.7-7.2,8.3
				v0.3c0,5.6,2.9,8.3,7.2,8.3C335.5,125.8,337.8,122.8,337.8,117.5z"/>
			<path class="st4" d="M351.2,128.7c-4,0-7.1-2-7.1-6.5c0-5.1,5.3-6.8,10.8-6.8h3.1v-1.6c0-3.7-1.5-5-4.6-5c-2.9,0-4.5,1.1-4.9,3.9
				H345c0.4-5.2,4.4-6.8,8.5-6.8c4.1,0,7.9,1.5,7.9,7.9v11.8h2.9v2.7H358v-3C356.5,127.5,354.4,128.7,351.2,128.7z M358,120.6v-2.7
				H355c-4.3,0-7.5,1.1-7.5,4.3c0,2,1,3.7,4,3.7C355.1,125.9,358,124,358,120.6z"/>
			<path class="st4" d="M372.7,124.6v3.7h-6.6v-2.7h3.1V98.7h-3.2v-2.9h6.6v14.4c1.3-2.4,4.2-4.2,7.4-4.2c5.8,0,10,4.2,10,11v0.3
				c0,6.7-3.9,11.3-10,11.3C376.6,128.7,374,126.9,372.7,124.6z M386.5,117.5v-0.3c0-5.5-3.1-8.3-6.8-8.3c-4.1,0-7.2,2.7-7.2,8.3
				v0.3c0,5.6,2.9,8.3,7.2,8.3C384.2,125.8,386.5,122.8,386.5,117.5z"/>
			<path class="st4" d="M392.7,128.3v-2.7h3.1v-16.4h-3.2v-2.9h6.6v19.2h3.2v2.7H392.7z M394.9,99.4c0-1.3,1.1-2.4,2.4-2.4
				s2.4,1,2.4,2.4c0,1.3-1.1,2.4-2.4,2.4S394.9,100.7,394.9,99.4z"/>
			<path class="st4" d="M404.2,128.3v-2.7h3.1V98.7h-3.2v-2.9h6.7v29.7h3.1v2.7H404.2z"/>
			<path class="st4" d="M415.7,128.3v-2.7h3.1v-16.4h-3.2v-2.9h6.6v19.2h3.2v2.7H415.7z M417.9,99.4c0-1.3,1.1-2.4,2.4-2.4
				s2.4,1,2.4,2.4c0,1.3-1.1,2.4-2.4,2.4S417.9,100.7,417.9,99.4z"/>
			<path class="st4" d="M429.8,122.8v-13.5h-3.2v-2.9h3.2v-5h3.5v5h5.7v2.9h-5.7v13.2c0,2.1,1,3.2,3.2,3.2c0.9,0,1.8-0.2,2.9-0.5
				v2.9c-1,0.3-1.9,0.5-3.2,0.5C431.7,128.6,429.8,126.2,429.8,122.8z"/>
			<path class="st4" d="M461.2,109.2l-11,26.8h-5.6v-2.7h3.4l3-7.2l-7.4-16.8h-2.8v-2.9h9.7v2.9h-3.2l5.5,12.9l5-12.9h-3.3v-2.9h9.4
				v2.9H461.2z"/>
		</g>
		<g>
			<path class="st4" d="M243.9,6.3h3.6l8.7,20h-5l-1.7-4.2h-7.8l-1.7,4.2h-4.9L243.9,6.3z M245.6,12.1l-2.4,6.2h4.9L245.6,12.1z"/>
			<path class="st4" d="M218.6,6.3h7.4c0.9,0,1.7,0.1,2.6,0.2c0.9,0.1,1.7,0.4,2.4,0.7c0.7,0.4,1.3,0.9,1.7,1.5
				c0.4,0.7,0.6,1.5,0.6,2.6c0,1.1-0.3,2.1-0.9,2.8c-0.6,0.7-1.5,1.3-2.5,1.6v0.1c0.7,0.1,1.3,0.3,1.8,0.5c0.5,0.3,1,0.6,1.4,1
				c0.4,0.4,0.7,0.9,0.9,1.5c0.2,0.6,0.3,1.2,0.3,1.8c0,1.1-0.2,1.9-0.7,2.6c-0.5,0.7-1,1.3-1.7,1.7c-0.7,0.4-1.5,0.7-2.4,0.9
				c-0.9,0.2-1.8,0.3-2.7,0.3h-8.2V6.3z M223,14.3h3.2c0.3,0,0.7,0,1-0.1c0.3-0.1,0.6-0.2,0.9-0.4c0.3-0.2,0.5-0.4,0.6-0.7
				c0.2-0.3,0.2-0.6,0.2-1c0-0.4-0.1-0.8-0.3-1c-0.2-0.3-0.4-0.5-0.7-0.6c-0.3-0.2-0.6-0.3-1-0.3c-0.4-0.1-0.7-0.1-1-0.1h-3V14.3z
				 M223,22.6h3.9c0.3,0,0.7,0,1-0.1c0.3-0.1,0.7-0.2,0.9-0.4c0.3-0.2,0.5-0.4,0.7-0.7c0.2-0.3,0.3-0.7,0.3-1.1
				c0-0.5-0.1-0.9-0.4-1.1c-0.2-0.3-0.5-0.5-0.9-0.7c-0.4-0.2-0.7-0.3-1.2-0.3c-0.4-0.1-0.8-0.1-1.2-0.1H223V22.6z"/>
			<path class="st4" d="M258.4,6.3h7.7c1,0,2,0.1,2.9,0.3c0.9,0.2,1.7,0.5,2.4,1c0.7,0.5,1.2,1.1,1.6,1.9c0.4,0.8,0.6,1.8,0.6,2.9
				c0,1.4-0.4,2.6-1.1,3.6c-0.7,1-1.8,1.6-3.2,1.9l5.1,8.4h-5.3l-4.2-8h-2.2v8h-4.4V6.3z M262.8,14.6h2.6c0.4,0,0.8,0,1.3,0
				c0.4,0,0.8-0.1,1.2-0.3c0.4-0.1,0.7-0.4,0.9-0.7c0.2-0.3,0.4-0.7,0.4-1.3c0-0.5-0.1-0.9-0.3-1.2c-0.2-0.3-0.5-0.5-0.8-0.7
				c-0.3-0.2-0.7-0.3-1.1-0.3c-0.4-0.1-0.8-0.1-1.2-0.1h-2.9V14.6z"/>
			<path class="st4" d="M184.5,6.3h3.6l8.7,20h-5l-1.7-4.2h-7.8l-1.7,4.2h-4.9L184.5,6.3z M186.2,12.1l-2.4,6.2h4.9L186.2,12.1z"/>
			<path class="st4" d="M284.6,6.3h3.6l8.7,20h-5l-1.7-4.2h-7.8l-1.7,4.2H276L284.6,6.3z M286.3,12.1l-2.4,6.2h4.9L286.3,12.1z"/>
			<path class="st4" d="M159.2,6.3h7.4c0.9,0,1.7,0.1,2.6,0.2c0.9,0.1,1.7,0.4,2.4,0.7c0.7,0.4,1.3,0.9,1.7,1.5
				c0.4,0.7,0.6,1.5,0.6,2.6c0,1.1-0.3,2.1-0.9,2.8c-0.6,0.7-1.5,1.3-2.5,1.6v0.1c0.7,0.1,1.3,0.3,1.8,0.5c0.5,0.3,1,0.6,1.4,1
				c0.4,0.4,0.7,0.9,0.9,1.5c0.2,0.6,0.3,1.2,0.3,1.8c0,1.1-0.2,1.9-0.7,2.6c-0.5,0.7-1,1.3-1.7,1.7c-0.7,0.4-1.5,0.7-2.4,0.9
				c-0.9,0.2-1.8,0.3-2.7,0.3h-8.2V6.3z M163.6,14.3h3.2c0.3,0,0.7,0,1-0.1c0.3-0.1,0.6-0.2,0.9-0.4c0.3-0.2,0.5-0.4,0.6-0.7
				c0.2-0.3,0.2-0.6,0.2-1c0-0.4-0.1-0.8-0.3-1c-0.2-0.3-0.4-0.5-0.7-0.6c-0.3-0.2-0.6-0.3-1-0.3c-0.4-0.1-0.7-0.1-1-0.1h-3V14.3z
				 M163.6,22.6h3.9c0.3,0,0.7,0,1-0.1c0.3-0.1,0.7-0.2,0.9-0.4c0.3-0.2,0.5-0.4,0.7-0.7c0.2-0.3,0.3-0.7,0.3-1.1
				c0-0.5-0.1-0.9-0.4-1.1c-0.2-0.3-0.5-0.5-0.9-0.7c-0.4-0.2-0.7-0.3-1.2-0.3c-0.4-0.1-0.8-0.1-1.2-0.1h-3.3V22.6z"/>
			<path class="st4" d="M198.9,6.3h7.7c1,0,2,0.1,2.9,0.3c0.9,0.2,1.7,0.5,2.4,1c0.7,0.5,1.2,1.1,1.6,1.9c0.4,0.8,0.6,1.8,0.6,2.9
				c0,1.4-0.4,2.6-1.1,3.6c-0.7,1-1.8,1.6-3.2,1.9l5.1,8.4h-5.3l-4.2-8h-2.2v8h-4.4V6.3z M203.3,14.6h2.6c0.4,0,0.8,0,1.3,0
				c0.4,0,0.8-0.1,1.2-0.3c0.4-0.1,0.7-0.4,0.9-0.7c0.2-0.3,0.4-0.7,0.4-1.3c0-0.5-0.1-0.9-0.3-1.2c-0.2-0.3-0.5-0.5-0.8-0.7
				c-0.3-0.2-0.7-0.3-1.1-0.3c-0.4-0.1-0.8-0.1-1.2-0.1h-2.9V14.6z"/>
			<path class="st4" d="M79.2,6.3h3.6l8.7,20h-5l-1.7-4.2H77l-1.7,4.2h-4.9L79.2,6.3z M80.9,12.1l-2.4,6.2h4.9L80.9,12.1z"/>
			<path class="st4" d="M138.4,6.3h3.6l8.7,20h-5l-1.7-4.2h-7.8l-1.7,4.2h-4.9L138.4,6.3z M140.1,12.1l-2.4,6.2h4.9L140.1,12.1z"/>
			<path class="st4" d="M93.9,6.3h6l8.5,13.9h0.1V6.3h4.4v20h-5.8l-8.7-14.2h-0.1v14.2h-4.4V6.3z"/>
			<path class="st4" d="M121.4,10.2h-5.5V6.3h15.8v3.9h-5.9v16.1h-4.4V10.2z"/>
			<path class="st4" d="M15.3,26.6C10.6,26.6,8,23.9,8,19L8,8.2H5.8V6.3H13v1.9h-2.5l0,10.4c0,4.2,1.5,5.9,4.9,5.9
				c3.2,0,5.1-1.3,5.1-6.2l0-10.1h-2.5V6.3h7.3v1.9h-2.3l0,10.4C22.9,23.6,20.5,26.6,15.3,26.6z"/>
			<path class="st4" d="M42.7,19.6c-0.5,3.3-2.8,4.9-6.1,4.9c-4.4,0-7-3.1-7-8.3v-0.2c0-5.1,2.8-8.3,7-8.3c3.1,0,5.2,1.3,6,4.7h2.1
				l0-6.1h-2.2l0,2.2c-1-1.9-3.3-2.7-5.8-2.7c-5.6,0-9.6,4.3-9.6,10.3v0.2c0,6.2,3.6,10.2,9.4,10.2c4.4,0,7.6-2.2,8.4-6.7L42.7,19.6
				z"/>
			<path class="st4" d="M69.3,20.1c0,3.8-3.2,6.5-7.8,6.5c-3.7,0-6.3-1.2-7.9-3.7l3-2.6c0.5,0.7,2.2,2.7,5.2,2.7
				c1.9,0,3.1-0.8,3.1-2.2c0-1.7-1.1-2.1-3.9-2.8c-3.3-0.9-6.6-2.3-6.6-6c0-3.7,3.1-6.2,7.5-6.2c1.8,0,5,0.4,6.8,3.2L66,11.4
				C65,10,63.5,9.4,61.5,9.4c-2,0-2.7,1.4-2.7,2.3c0,1.5,1.9,2.1,4.3,2.7C66.1,15.2,69.3,16.3,69.3,20.1z"/>
		</g>
	</g>
</g>
</svg>
